<?xml version="1.0" encoding="utf-8"?>
<!-- Generator: Adobe Illustrator 22.0.1, SVG Export Plug-In . SVG Version: 6.00 Build 0)  -->
<svg version="1.1" id="Capa_1" xmlns="http://www.w3.org/2000/svg" xmlns:xlink="http://www.w3.org/1999/xlink" x="0px" y="0px"
	 viewBox="0 0 90.9 117" style="enable-background:new 0 0 90.9 117;" xml:space="preserve">
<style type="text/css">
	.st0{fill:#ff8574;}
	.st1{stroke:#ff8574;stroke-width:1.33;stroke-linecap:round;stroke-linejoin:round;stroke-miterlimit:10;}
</style>
<g>
	<path d="M31.6,103.8v-0.6c0-0.1,0.7-11.3,0.7-15.9c0-0.7,0-1.2,0-1.5c0-1,0-3.3-0.1-3.8c0-0.4-0.2-2.1-1.8-4.7
		c-1.5-2.7-3.6-8.7-4.1-10.7l-0.1-0.4c-0.5-2.3-1.6-6.7-1.7-7.5c-0.1-0.4-1.6-4.6-2.7-7.3c-1.1-2.8-1.5-3.6-3.1-6.7
		c-1.7-3.3-2.8-5.4-3.4-6.4c-0.7-1.2-1.8-3.4-2.2-4.4l-0.1-0.3c-0.2-0.6-0.4-1.2-0.2-2.1c0.2-0.7,0.7-1.3,1.6-1.9c0,0,1.7-0.7,3.5,1
		c0.2,0.3,3.8,4.9,4.3,5.9c0.4,0.8,3.4,5.2,3.8,5.8c0.2,0.2,0.4,0.7,0.7,1.2c0.4,0.7,1.2,1.9,1.5,2.2c0.1,0.1,0.2,0.2,0.3,0.3
		c0.5,0.6,0,0.2,1.5-0.2c0.5-0.2,0.5-0.2,0.5-0.6c0-0.2,0-0.6-0.1-1.1c-0.4-1.7-2.5-7.4-2.8-8c-0.4-0.7-2.4-7-3.3-9.8
		c-0.6-1.9-1.2-3.9-1.6-5.2c-0.2-0.7-0.4-1.2-0.4-1.3c0-0.2-0.2-0.7-0.2-1.5c0-1.6,0.8-2.7,2.3-3.2c1-0.2,3,0,3.8,2.3
		c0.8,2.4,2.3,6.2,2.8,7.3c0.5,1.1,2.3,5,3,6.2l0.7,1.8c0.7,1.9,1.7,4.5,2.1,5.3c0.2,0.7,0.7,1.7,1.1,1.9L38,40l0,0
		c0.1-0.2,0.1-1.2-0.1-2.7c-0.6-3.6-1.5-10.7-1.5-12.4v-0.2c0-1.2-0.2-4.7-0.4-7.2c-0.1-1.1-0.1-1.9-0.1-2.3c0-0.1,0-0.2,0-0.4
		c-0.1-0.6-0.2-1.9-0.2-3.2c0-1.9,0.4-3.2,1-3.8c0.1-0.1,1.7-1.2,3.4-0.8c0.8,0.1,1.6,0.7,2.1,1.6c0,0.1,0.5,1,0.7,2.3
		c0,0,0.8,6.2,1.1,7.5c0.1,0.7,0.5,2.3,0.7,3.8c0.2,1.2,0.5,2.2,0.6,2.7c0.1,1,0.6,4.7,0.6,6.4c0,0,0.8,6.2,1.1,7.3
		c0,0.2,0.2,0.8,0.6,1c0.1,0.1,0.4,0.1,0.6,0h0.1h0.1c0.1,0,0.8-0.6,1.1-2.7c0.1-0.4,1.6-10.3,1.9-11.8c0.2-1.2,1-6.8,1.3-9.5
		c0.1-0.8,0.2-1.6,0.2-1.7c0-0.4,0.4-2.3,1.9-3.2c0.8-0.5,1.9-0.5,3.2-0.1c0,0,1.9,0.6,1.9,4.1v0.4c-0.1,3.4-0.6,14.8-0.6,14.9
		c0,0.1-1,9.1-1.1,11.3c0,0.5,0,1,0,1.3c0,0.6,0,1.1,0,1.7c0,1.2,0.1,2.4,0.4,3.8c0.6,3.2,1.1,5.3,1.5,6.4c0.2,0.8,0.7,1.7,1,1.7
		c0,0,0.1,0,0.2-0.2c0,0,1.9-2.5,3.4-5.7c0-0.1,1.6-4.7,8.5-7.3c0.2-0.1,4.8-1.1,6.9,1.5c0.1,0.1,0.6,0.7,0.6,1.6
		c0,0.5-0.1,0.8-0.5,1.2c0,0-6.3,6.2-7.5,8c-1.2,2.1-2.7,5.9-3.2,9.1c0,0.1-0.2,2.1-1.3,3.3c-0.2,0.4-6.7,9.8-7.5,10.9
		c-0.7,0.8-1.7,1.6-3.4,2.8l-0.7,0.5c-0.7,0.5-1.1,0.8-1.5,3.9c-0.4,2.9-0.5,17.3-0.5,17.5v0.6"/>
	<path class="st0" d="M54.7,104.5c-0.4,0-0.7-0.3-0.7-0.7v-0.6c0-0.1,0.1-14.6,0.5-17.5c0.4-3,0.7-3.7,1.7-4.3l0.7-0.5
		c1.6-1.1,2.6-1.9,3.3-2.7c0.8-1,7.2-10.4,7.5-10.8c1-1.1,1.2-2.9,1.2-2.9c0.5-3.4,2.1-7.4,3.2-9.4c1.3-1.9,7.4-7.9,7.6-8.1
		c0.2-0.2,0.3-0.4,0.3-0.7c0-0.7-0.4-1.1-0.4-1.1c-1.7-2.1-5.7-1.5-6.2-1.3c-6.4,2.4-8,6.6-8.1,6.8c0,0,0,0.1,0,0.1
		c-1.4,3-3.2,5.4-3.4,5.8C61.7,57,61.3,57,61.1,57c-0.9,0-1.5-1.8-1.6-2.2c-0.4-1.1-0.8-3.1-1.5-6.5c-0.3-1.4-0.4-2.6-0.4-3.9v-3
		c0.1-1.7,0.6-6.9,0.9-9.8c0.1-0.9,0.2-1.5,0.2-1.6c0,0,0.1-1.3,0.1-3.1c0.2-3.7,0.4-9.5,0.5-11.8l0-0.3c0-2.9-1.4-3.5-1.5-3.5
		c-1.1-0.3-2-0.3-2.6,0.1c-1.3,0.7-1.6,2.3-1.6,2.6c0,0.1,0,0.3-0.1,0.9l-0.4,2.9c-0.4,2.9-0.9,6.6-1.1,7.5
		c-0.2,0.9-0.8,4.8-1.3,7.7c-0.5,2.9-0.6,3.7-0.7,4c-0.3,2.1-1.1,3.2-1.7,3.2h-0.1c-0.4,0.1-0.8,0.1-1.1-0.1c-0.6-0.3-0.9-1-0.9-1.5
		c-0.3-1.2-1.1-7-1.1-7.3c0-1.7-0.4-5.1-0.6-6.2l0-0.2c-0.1-0.4-0.3-1.4-0.6-2.6c-0.1-0.9-0.3-1.8-0.5-2.5c-0.1-0.5-0.2-1-0.3-1.3
		c-0.2-1.3-1.1-7.3-1.1-7.5c-0.2-0.9-0.4-1.5-0.6-1.9c0-0.1-0.1-0.2-0.1-0.3c-0.4-0.7-1-1.1-1.5-1.2c-1.5-0.3-2.8,0.7-2.9,0.7
		c-0.3,0.3-0.8,1.1-0.8,3.3c0,1.2,0.1,2.5,0.2,3c0,0,0,0.1,0,0.1v0.4c0,0.4,0,1.2,0.1,2.2c0,0.9,0.1,1.9,0.2,2.8
		c0.1,1.8,0.2,3.6,0.2,4.4V25c0,1.6,0.8,8.4,1.4,12.3c0.1,0.9,0.4,2.5,0.1,3.1c-0.1,0.1-0.2,0.2-0.3,0.3L38,40.7
		c-0.2,0.1-0.5,0.1-0.7,0c-0.8-0.5-1.3-2.2-1.4-2.3c-0.3-0.8-1.3-3.3-2.1-5.3l-0.7-1.8c-0.8-1.3-2.6-5.2-3-6.2
		c-0.5-1.1-2-4.9-2.8-7.3c-0.6-2-2.4-2-3-1.9c-1.2,0.4-1.8,1.3-1.8,2.5c0,0.4,0.1,0.7,0.1,0.9c0.1,0.2,0.1,0.4,0.1,0.5
		c0,0,0.1,0.4,0.3,1.1c0.4,1.3,1,3.3,1.6,5.2c0.9,2.9,2.9,9.1,3.2,9.8c0.3,0.6,2.5,6.4,2.8,8.2c0.1,0.5,0.1,1,0.1,1.2
		c0,0.7-0.2,0.9-0.9,1.2c0,0-0.1,0-0.1,0.1c-0.5,0.1-0.7,0.3-0.9,0.3c-0.7,0.4-1.1-0.1-1.2-0.3l-0.1-0.1c-0.1-0.1-0.2-0.2-0.3-0.3
		c-0.3-0.4-0.9-1.3-1.5-2.3c-0.1-0.2-0.2-0.4-0.3-0.5c-0.1-0.2-0.2-0.4-0.3-0.5c0,0-0.1-0.1-0.1-0.1c-0.5-0.6-3.5-5-3.9-5.9
		c-0.3-0.6-2.3-3.2-3.3-4.6c-0.5-0.7-0.8-1-0.9-1.2c-1.5-1.3-2.7-0.8-2.7-0.8c-0.6,0.4-1.1,0.9-1.2,1.4c-0.2,0.6,0,1.2,0.2,1.6
		c0,0,0,0.1,0,0.1l0,0.2c0.4,1,1.4,3.1,2.1,4.2c0.6,1,1.7,3,3.2,6.1l0.2,0.4c1.6,3.1,2,4,3.1,6.8c1.1,2.8,2.6,7,2.7,7.3
		c0,0,0,0.1,0,0.1c0.1,0.4,0.4,2,0.8,3.5c0.3,1.4,0.7,2.9,0.9,3.9l0.1,0.3c0.5,1.9,2.7,8,4.1,10.6c1.7,2.8,1.9,4.6,1.9,5
		c0.1,0.5,0.1,1.6,0.1,3.8v1.5c0,2.6-0.2,7.8-0.7,15.3c0,0.4,0,0.6,0,0.6l0,0.6c0,0.4-0.3,0.7-0.7,0.7s-0.7-0.3-0.7-0.7v-0.6
		c0,0,0-0.3,0-0.7c0.5-7.5,0.7-12.6,0.7-15.2v-1.5c0-2.6-0.1-3.4-0.1-3.6c0-0.1,0-0.1,0-0.2c0,0-0.1-1.6-1.7-4.4
		c-1.5-2.8-3.7-8.9-4.2-10.8l-0.1-0.3c-0.2-1.1-0.6-2.6-0.9-4c-0.4-1.6-0.7-3-0.8-3.6c-0.2-0.6-1.6-4.6-2.7-7.2
		C20,48.9,19.6,48.1,18,45l-0.2-0.4c-1.6-3-2.6-5-3.2-6c-0.7-1.2-1.8-3.5-2.2-4.5c0,0,0-0.1,0-0.1l0-0.2c-0.3-0.6-0.5-1.4-0.3-2.4
		c0.2-0.9,0.8-1.6,1.9-2.3c0.2-0.1,2.2-0.9,4.3,1.1c0,0,0.1,0.1,0.1,0.1c0.1,0.1,0.4,0.5,0.9,1.1c1.6,2.1,3.1,4.1,3.5,4.8
		c0.4,0.8,3.2,4.9,3.7,5.6c0.2,0.2,0.4,0.5,0.5,0.8c0.1,0.1,0.2,0.3,0.2,0.4c0.4,0.6,1.1,1.8,1.4,2.1c0,0,0.1,0.1,0.1,0.1
		c0,0,0.1,0.1,0.2,0.1c0.2-0.1,0.5-0.2,0.8-0.3c0,0,0,0,0.1,0c0-0.2,0-0.5-0.1-0.9c-0.3-1.6-2.4-7.1-2.8-7.9
		c-0.4-0.7-2.5-7.2-3.3-9.9c-0.6-1.9-1.2-3.9-1.6-5.2c-0.2-0.5-0.4-1.2-0.4-1.5c0,0,0-0.1-0.1-0.2c-0.1-0.3-0.2-0.7-0.2-1.3
		c0-1.8,1-3.2,2.8-3.8c1.4-0.3,3.8,0.1,4.6,2.7c0.8,2.3,2.3,6.1,2.8,7.2c0.5,1.1,2.3,4.9,3,6.1c0,0,0,0.1,0,0.1l0.7,1.8
		c0.8,2,1.7,4.5,2.1,5.3c0,0,0,0.1,0,0.1c0-0.2-0.1-0.4-0.1-0.6c-0.6-3.6-1.5-10.7-1.5-12.5v-0.2c0-0.8-0.1-2.6-0.2-4.3
		c-0.1-1-0.1-1.9-0.2-2.8c-0.1-1.1-0.1-2-0.1-2.3V15c-0.1-0.6-0.2-2-0.2-3.2c0-2,0.4-3.5,1.2-4.2c0.2-0.2,2-1.5,4-1
		c1,0.1,1.9,0.8,2.5,1.9c0,0.1,0.1,0.1,0.1,0.2c0,0,0,0.1,0.1,0.2c0.2,0.4,0.5,1.1,0.7,2.2c0,0.1,0.9,6.2,1.1,7.5
		c0.1,0.3,0.1,0.7,0.2,1.3c0.2,0.7,0.3,1.7,0.5,2.5c0.2,1.2,0.5,2.1,0.6,2.6l0,0.3c0.2,1.3,0.6,4.7,0.6,6.3l0,0c0,0,0.8,6.1,1.1,7.1
		c0,0,0,0.1,0,0.1c0,0.1,0.1,0.3,0.2,0.4c0,0,0,0,0,0c0.1,0,0.2-0.1,0.3-0.1h0c0.2-0.2,0.5-0.8,0.7-2.1c0,0,0-0.1,0-0.1
		c0-0.2,0.3-2.1,0.6-3.9c0.5-3.1,1.1-6.9,1.3-7.8c0.2-0.9,0.7-4.7,1.1-7.4l0.4-2.9c0.1-0.4,0.1-0.6,0.1-0.7c0-0.5,0.4-2.7,2.3-3.7
		c1-0.6,2.2-0.6,3.7-0.2c0.1,0,2.4,0.8,2.4,4.8v0.4c-0.1,2.3-0.3,8.1-0.5,11.8c-0.1,1.8-0.1,3-0.1,3.1c0,0,0,0.1-0.2,1.6
		c-0.3,2.6-0.8,8.1-0.9,9.7l0,3c0,1.2,0.1,2.3,0.4,3.6c0.6,3.2,1.1,5.3,1.4,6.3c0.1,0.3,0.2,0.6,0.3,0.9c0.6-0.8,1.9-2.8,3-5.2
		c0.3-1.2,2.5-5.3,8.9-7.6c0.3-0.2,5.3-1.3,7.7,1.7v0c0,0,0.8,0.8,0.8,2c0,0.7-0.2,1.2-0.7,1.7c-0.1,0.1-6.3,6.2-7.4,7.9
		c-1.1,1.9-2.5,5.6-3,8.8c0,0.5-0.4,2.4-1.5,3.6c-0.2,0.3-6.6,9.7-7.5,10.9c-0.8,1-1.9,1.7-3.5,2.9L57,82.5
		c-0.5,0.3-0.8,0.5-1.2,3.4c-0.4,2.9-0.5,17.2-0.5,17.4v0.6C55.4,104.2,55.1,104.5,54.7,104.5z"/>
</g>
<g>
	<ellipse cx="43" cy="103.9" rx="11.5" ry="3.8"/>
	<path class="st0" d="M43,108.3c-5.9,0-12.1-1.6-12.1-4.5s6.3-4.5,12.1-4.5s12.1,1.6,12.1,4.5S48.9,108.3,43,108.3z M43,100.7
		c-6.7,0-10.8,1.8-10.8,3.1S36.3,107,43,107s10.8-1.8,10.8-3.1S49.7,100.7,43,100.7z"/>
</g>
<g>
	<path d="M56.3,57.7c0,0-13.2,2-12.3,17.7"/>
	<path class="st0" d="M44,76.1c-0.4,0-0.6-0.3-0.7-0.6c-0.9-16.1,12.8-18.3,12.9-18.4c0.4-0.1,0.7,0.2,0.8,0.6
		c0.1,0.4-0.2,0.7-0.6,0.8c-0.5,0.1-12.6,2.1-11.8,17C44.7,75.7,44.4,76,44,76.1C44,76.1,44,76.1,44,76.1z"/>
</g>
<g>
	<path d="M46.1,50.9c0,0-5.8,8.6-15.8,8.5"/>
	<path class="st0" d="M30.3,60.1c-0.4,0-0.7-0.3-0.7-0.7c0-0.4,0.3-0.7,0.7-0.7c0,0,0,0,0,0c9.5,0,15.2-8.2,15.3-8.3
		c0.2-0.3,0.6-0.4,0.9-0.2s0.4,0.6,0.2,0.9C46.4,51.6,40.5,60.1,30.3,60.1z"/>
</g>
<g>
	<path d="M46.7,42.8c0,0,3.5,4.2,8.7,3.4"/>
	<path class="st0" d="M54.2,47c-4.8,0-7.8-3.6-8-3.7c-0.2-0.3-0.2-0.7,0.1-0.9c0.3-0.2,0.7-0.2,0.9,0.1c0,0,3.3,3.9,8.1,3.2
		c0.4-0.1,0.7,0.2,0.8,0.6c0.1,0.4-0.2,0.7-0.6,0.8C55.1,46.9,54.6,47,54.2,47z"/>
</g>
</svg>
